<?xml version="1.0" encoding="utf-8"?>
<!-- Generator: Adobe Illustrator 24.1.1, SVG Export Plug-In . SVG Version: 6.00 Build 0)  -->
<svg version="1.1" id="Layer_1" xmlns="http://www.w3.org/2000/svg" xmlns:xlink="http://www.w3.org/1999/xlink" x="0px" y="0px"
	 viewBox="0 0 512 512" style="enable-background:new 0 0 512 512;" xml:space="preserve">
<style type="text/css">
	.st0{fill-rule:evenodd;clip-rule:evenodd;fill:#1D1D1D;}
</style>
<g>
	<path class="st0" d="M160.54,458.25C90.77,425.39,40.85,357.56,33.16,277.33h-32C12.06,408.75,121.91,512,256.1,512l14.08-0.63
		l-81.29-81.29L160.54,458.25z M179.52,319.16c-4.06,0-7.9-0.65-11.1-1.71c-3.4-1.29-6.19-2.79-8.52-5.13
		c-2.35-2.15-4.27-4.69-5.54-7.9c-1.29-2.98-1.94-6.4-1.94-10.02h-27.73c0,7.67,1.5,14.5,4.48,20.25c3,5.77,7.04,10.67,11.96,14.73
		c5.1,3.83,10.88,6.83,17.48,8.75c6.42,2.13,13.23,3.19,20.48,3.19c7.9,0,15.38-1.06,21.98-3.19c6.83-2.15,12.81-5.33,17.71-9.4
		c4.92-4.04,8.96-9.17,11.73-15.35s4.27-13.02,4.27-20.69c0-4.06-0.42-8.1-1.5-11.96c-1.06-3.83-2.54-7.46-4.9-10.88
		c-2.15-3.42-5.13-6.4-8.54-9.17c-3.63-2.77-7.9-4.92-13-6.63c4.25-1.92,7.9-4.25,11.08-7.04c3.21-2.77,5.77-5.75,7.9-8.96
		c2.13-3.19,3.63-6.4,4.69-9.81s1.5-6.81,1.5-10.23c0-7.69-1.27-14.52-3.83-20.48c-2.56-5.98-6.19-10.9-10.9-14.73
		c-4.25-4.04-10.02-7.04-16.42-9.17c-6.63-1.92-13.88-3-21.77-3c-7.67,0-14.71,1.08-21.33,3.42c-6.4,2.35-12.15,5.56-16.85,9.6
		c-4.48,4.06-8.1,8.75-10.88,14.29c-2.56,5.54-3.83,11.52-3.83,18.15h27.73c0-3.63,0.65-6.83,1.92-9.6c1.29-2.77,3-5.33,5.33-7.25
		c2.35-1.94,4.92-3.63,8.1-4.71c3.21-1.06,6.42-1.71,10.25-1.71c8.54,0,14.94,2.15,18.98,6.63c4.06,4.27,6.19,10.46,6.19,18.35
		c0,3.83-0.63,7.25-1.71,10.44c-1.06,3.21-2.98,5.77-5.33,7.9c-2.33,2.15-5.33,3.83-8.75,5.13c-3.4,1.27-7.67,1.92-12.35,1.92H160.1
		v21.98h16.44c4.69,0,8.96,0.42,12.79,1.48c3.83,1.08,7.04,2.79,9.6,4.92c2.56,2.35,4.69,5.13,6.19,8.54
		c1.48,3.4,2.13,7.46,2.13,12.15c0,8.75-2.56,15.38-7.46,19.85C194.87,317.02,188.06,319.16,179.52,319.16z M361.92,192.85
		c-6.83-7.02-14.94-12.58-24.31-16.42c-9.4-3.83-19.85-5.77-31.38-5.77H255.9v170.67h49.06c11.73,0,22.6-1.92,32.21-5.75
		c9.6-3.83,17.92-9.17,24.75-16.21s12.17-15.58,15.79-25.4c3.63-10.02,5.54-21.13,5.54-33.48v-8.54c0-12.38-1.92-23.46-5.54-33.5
		C374.09,208.43,368.75,199.89,361.92,192.85z M353.61,260.27c0,8.96-1.06,16.85-3,24.1c-2.13,7.04-5.1,13.23-9.17,18.15
		c-4.04,4.9-9.17,8.75-15.15,11.31c-6.19,2.54-13.23,3.83-21.13,3.83h-19.42V194.56h20.71c15.35,0,27.08,4.92,34.98,14.73
		c8.1,9.81,12.17,23.9,12.17,42.46V260.27z M256.1,0l-14.08,0.64l81.29,81.29l28.38-28.38c69.75,33.06,119.67,100.69,127.15,180.9
		h32C500.17,103.26,390.29,0,256.1,0z"/>
</g>
</svg>
